<svg width="224" height="45" viewBox="0 0 224 45" fill="none" xmlns="http://www.w3.org/2000/svg">
<path d="M50.3494 8.90686H52.4768L53.2302 7.24512H51.1028L50.3494 8.90686Z" fill="white"/>
<path d="M48.8647 0H46.7372L45.9838 1.66174H48.1112L48.8647 0Z" fill="white"/>
<path d="M47.2912 5.69397H49.4187L50.1943 4.03223H48.0668L47.2912 5.69397Z" fill="white"/>
<path d="M49.5294 11.0338L46.4048 17.9688L47.1804 16.2628H44.9643L48.776 7.8211H46.5599L41.9726 17.9688L45.4297 10.3026H43.2136L39.7565 17.9688L45.5183 5.14014H43.3022L37.4074 18.279L31.6013 31.7724L22.05 10.6571C21.9181 10.3758 21.7079 10.1385 21.4446 9.97343C21.1812 9.80841 20.876 9.72271 20.5652 9.72657H12.9419C12.7654 9.72615 12.5907 9.76206 12.4287 9.83212C12.2667 9.90217 12.1208 10.0048 12.0002 10.1337C11.8796 10.2626 11.7869 10.4149 11.7278 10.5812C11.6686 10.7475 11.6444 10.9242 11.6566 11.1003L0 36.8241H10.7258L17.0195 22.9541L26.5708 44.0471C26.7017 44.3309 26.9111 44.5713 27.1741 44.7401C27.4372 44.9089 27.743 44.999 28.0556 44.9999H35.1027C35.4174 44.9969 35.7248 44.9047 35.9891 44.734C36.3342 44.5372 36.6064 44.2341 36.7648 43.8699L48.5322 17.8802L51.6569 10.9452L49.5294 11.0338Z" fill="white"/>
<path d="M76.477 20.4727C75.8524 19.8093 75.0981 19.2814 74.2609 18.9217C73.2732 18.5349 72.219 18.3467 71.1584 18.3678C69.818 18.3455 68.4907 18.6337 67.2803 19.2098C66.1124 19.8183 65.1434 20.7487 64.488 21.8907V18.7445H62.0281V36.7356H64.5545V27.74C64.5508 26.8111 64.6777 25.8863 64.9312 24.9926C65.1786 24.1863 65.5772 23.4343 66.1058 22.777C66.6357 22.1417 67.3024 21.6342 68.0559 21.2925C68.9221 20.9147 69.8589 20.7259 70.8038 20.7386C71.5131 20.6381 72.2361 20.7043 72.9153 20.9319C73.5945 21.1595 74.2114 21.5422 74.7168 22.0497C75.2223 22.5573 75.6025 23.1756 75.8273 23.8557C76.052 24.5357 76.1152 25.2588 76.0116 25.9675V36.7578H78.5601V25.7903C78.5717 24.7759 78.3912 23.7686 78.0283 22.8213C77.6848 21.9367 77.1558 21.1359 76.477 20.4727Z" fill="white"/>
<path d="M98.4827 23.2864C98.1898 22.4724 97.7463 21.7207 97.1752 21.0708C96.6114 20.4566 95.962 19.9268 95.2472 19.4977C94.5634 19.0652 93.8155 18.7436 93.0311 18.5449C92.1916 18.3288 91.3273 18.2245 90.4605 18.2347C89.2218 18.2177 87.9928 18.4546 86.8494 18.931C85.7059 19.4073 84.6723 20.113 83.8122 21.0043C83.0003 21.8603 82.3674 22.8696 81.9507 23.9733C81.5049 25.1249 81.2793 26.35 81.2859 27.5848C81.2753 28.8777 81.5006 30.1616 81.9507 31.3736C82.3606 32.5185 83.0018 33.5669 83.8344 34.4534C84.664 35.3308 85.668 36.0251 86.7818 36.4918C87.9999 37.0111 89.3137 37.2678 90.6377 37.2451C92.3829 37.315 94.1099 36.868 95.6018 35.96C97.0276 35.002 98.1501 33.6568 98.8372 32.0826L99.0145 31.7503L96.599 30.7975L96.4439 31.0856C96.0011 32.2408 95.231 33.2418 94.2278 33.9659C93.1529 34.6322 91.901 34.9567 90.6377 34.8965C89.7226 34.9121 88.8127 34.7542 87.9563 34.4312C87.1928 34.1197 86.4939 33.6689 85.8953 33.1018C85.307 32.5285 84.8398 31.8428 84.5214 31.0856C84.1801 30.2527 83.978 29.3694 83.923 28.4711H99.1253V28.1387C99.1253 27.319 99.1253 26.4992 99.1253 25.7237C99.0459 24.8816 98.8288 24.0582 98.4827 23.2864ZM83.8565 26.189C84.0571 24.6296 84.7935 23.1885 85.9397 22.1122C87.1638 21.0488 88.7523 20.5009 90.3718 20.5833C91.174 20.5237 91.9799 20.6264 92.7414 20.8853C93.5029 21.1442 94.2044 21.5539 94.804 22.09C95.8844 23.1862 96.5098 24.6506 96.5547 26.189H83.8565Z" fill="white"/>
<path d="M108.632 34.0992L102.538 18.7446H99.768L107.148 36.7358H110.139L117.519 18.7446H114.771L108.632 34.0992Z" fill="white"/>
<path d="M133.342 20.0957C132.624 19.469 131.788 18.9942 130.882 18.6999C129.864 18.3793 128.802 18.2222 127.735 18.2346C126.695 18.2263 125.656 18.3153 124.632 18.5004C123.735 18.6585 122.872 18.9735 122.084 19.431C121.325 19.8987 120.657 20.4991 120.112 21.2035C119.486 22.0321 119.006 22.9612 118.693 23.951V24.239L120.909 25.2361V24.9037C121.205 24.1224 121.592 23.3787 122.062 22.688C122.402 22.1508 122.865 21.7026 123.414 21.3808C123.966 21.0594 124.576 20.8487 125.209 20.7604C125.988 20.6655 126.773 20.6211 127.558 20.6275C128.944 20.5606 130.311 20.9669 131.436 21.7796C131.944 22.2216 132.341 22.7767 132.595 23.4001C132.849 24.0236 132.953 24.698 132.898 25.369V26.0558L125.519 26.7205C124.735 26.7997 123.958 26.9329 123.192 27.1193C122.415 27.3176 121.669 27.6233 120.976 28.0278C120.284 28.4178 119.687 28.9548 119.225 29.6009C118.739 30.3103 118.49 31.1561 118.516 32.016C118.489 32.8696 118.721 33.7115 119.181 34.431C119.622 35.0891 120.195 35.6477 120.865 36.0706C121.553 36.4909 122.3 36.8047 123.081 37.0012C123.865 37.1901 124.668 37.2868 125.475 37.2892C126.218 37.2919 126.96 37.2251 127.691 37.0898C128.407 36.9566 129.106 36.741 129.774 36.4473C130.428 36.1509 131.045 35.7791 131.613 35.3395C132.171 34.8728 132.65 34.3191 133.031 33.6999V36.7796H135.491V25.5019C135.517 24.4413 135.328 23.3864 134.937 22.4C134.575 21.5273 134.031 20.7417 133.342 20.0957ZM130.904 33.2567C129.419 34.4635 127.541 35.079 125.63 34.9849C125.086 34.9795 124.544 34.9201 124.012 34.8077C123.504 34.7016 123.013 34.5304 122.549 34.2981C122.129 34.0815 121.765 33.7706 121.486 33.3897C121.209 32.9946 121.069 32.52 121.087 32.0381C121.071 31.5153 121.226 31.0017 121.53 30.5758C121.855 30.1901 122.255 29.8736 122.704 29.6452C123.216 29.3923 123.76 29.2133 124.322 29.1135C124.898 29.0027 125.475 28.9362 126.051 28.8697L132.943 28.2494C132.992 29.1825 132.835 30.115 132.482 30.9805C132.13 31.8459 131.591 32.6231 130.904 33.2567Z" fill="white"/>
<path d="M153.818 29.9112C153.64 31.3445 152.928 32.6579 151.824 33.5892C150.667 34.5038 149.219 34.9682 147.746 34.8965C146.794 34.9124 145.849 34.7235 144.976 34.3426C144.153 33.9785 143.412 33.451 142.799 32.7921C142.185 32.1332 141.712 31.3566 141.408 30.5094C140.758 28.7203 140.758 26.7595 141.408 24.9703C141.731 24.1508 142.204 23.3992 142.804 22.7546C143.439 22.1028 144.191 21.5766 145.02 21.2037C145.893 20.8228 146.838 20.6339 147.791 20.6498C149.251 20.5889 150.687 21.0438 151.846 21.9349C152.946 22.8516 153.639 24.1656 153.774 25.5907V25.9674L156.322 25.5021V25.1254C156.009 23.155 154.965 21.375 153.397 20.1402C152.626 19.5367 151.757 19.0719 150.827 18.7665C149.852 18.4557 148.835 18.2987 147.813 18.3012C146.511 18.2832 145.219 18.5399 144.023 19.0545C142.904 19.5236 141.893 20.2174 141.054 21.0929C140.205 21.9538 139.541 22.9793 139.103 24.1062C138.158 26.4825 138.158 29.1302 139.103 31.5065C139.548 32.6364 140.211 33.6677 141.054 34.542C141.896 35.425 142.915 36.1197 144.045 36.5804C145.246 37.0776 146.535 37.3263 147.835 37.3115C148.882 37.3243 149.923 37.1595 150.915 36.8241C151.836 36.5021 152.697 36.0305 153.464 35.4282C154.226 34.8158 154.866 34.0639 155.347 33.2126C155.867 32.3435 156.235 31.3918 156.433 30.3987V30.0442L153.885 29.5567L153.818 29.9112Z" fill="white"/>
<path d="M161.818 11.0342H159.292V36.7358H161.818V11.0342Z" fill="white"/>
<path d="M180.788 20.9821C179.982 20.1133 179 19.426 177.907 18.9658C175.436 17.9919 172.688 17.9919 170.217 18.9658C169.118 19.4256 168.129 20.1128 167.314 20.9821C166.503 21.8596 165.877 22.8921 165.475 24.0175C164.616 26.4248 164.616 29.0549 165.475 31.4622C165.877 32.5876 166.503 33.6201 167.314 34.4976C168.129 35.367 169.118 36.0541 170.217 36.5139C172.688 37.4879 175.436 37.4879 177.907 36.5139C179 36.0537 179.982 35.3664 180.788 34.4976C181.597 33.6307 182.216 32.6044 182.605 31.4843C183.462 29.0615 183.462 26.4182 182.605 23.9954C182.216 22.8753 181.597 21.849 180.788 20.9821ZM180.256 30.5537C179.975 31.3686 179.539 32.1211 178.971 32.7694C178.355 33.4321 177.597 33.9471 176.755 34.2761C175.868 34.6633 174.908 34.8523 173.94 34.83C172.959 34.8524 171.984 34.6635 171.082 34.2761C170.275 33.9387 169.556 33.4236 168.976 32.7694C168.423 32.1109 167.988 31.3612 167.691 30.5537C167.4 29.6446 167.258 28.6944 167.27 27.7398C167.255 26.7834 167.405 25.8315 167.713 24.926C168.01 24.109 168.462 23.3568 169.043 22.7103C169.63 22.0694 170.338 21.55 171.126 21.1815C172.012 20.7943 172.973 20.6053 173.94 20.6276C174.922 20.6031 175.897 20.7921 176.799 21.1815C177.592 21.52 178.297 22.0353 178.86 22.6881C179.442 23.3265 179.88 24.082 180.145 24.9038C180.453 25.8247 180.603 26.7911 180.588 27.762C180.637 28.7047 180.524 29.6487 180.256 30.5537Z" fill="white"/>
<path d="M199.558 27.7403C199.566 28.671 199.431 29.5975 199.159 30.4877C198.927 31.2956 198.535 32.0489 198.007 32.7033C197.477 33.3386 196.81 33.8461 196.057 34.1878C195.191 34.5656 194.254 34.7545 193.309 34.7418C192.597 34.7986 191.881 34.7078 191.207 34.4753C190.532 34.2427 189.912 33.8733 189.386 33.3902C188.442 32.3428 187.948 30.9657 188.012 29.5571V18.7669H185.486V29.5571C185.478 30.5764 185.651 31.5891 185.996 32.5483C186.322 33.4323 186.828 34.2393 187.481 34.919C188.1 35.5879 188.856 36.1166 189.697 36.47C190.672 36.8442 191.71 37.0321 192.755 37.0239C194.175 37.092 195.591 36.8105 196.877 36.2041C198.056 35.6031 199.034 34.6714 199.691 33.5231V36.6694H202.151V18.6782H199.625L199.558 27.7403Z" fill="white"/>
<path d="M220.965 11.0342V21.7801C220.289 20.5854 219.27 19.6207 218.04 19.0106C216.758 18.4397 215.366 18.1598 213.963 18.1907C212.665 18.1704 211.379 18.4352 210.195 18.9662C209.135 19.4573 208.185 20.1582 207.403 21.0268C206.639 21.9158 206.059 22.9476 205.697 24.0623C204.9 26.4192 204.9 28.9727 205.697 31.3296C206.089 32.4354 206.675 33.4631 207.425 34.3651C208.193 35.2448 209.137 35.9542 210.195 36.4478C211.379 36.9789 212.665 37.2436 213.963 37.2233C215.377 37.249 216.779 36.9535 218.062 36.3592C219.322 35.725 220.363 34.7299 221.054 33.501V36.7358H223.47V11.0342H220.965ZM220.5 30.5098C220.217 31.3284 219.772 32.0819 219.193 32.7255C218.604 33.3747 217.887 33.8952 217.087 34.2543C215.291 34.9917 213.277 34.9917 211.481 34.2543C210.684 33.9006 209.974 33.3791 209.398 32.7255C208.837 32.0754 208.408 31.323 208.134 30.5098C207.843 29.6006 207.701 28.6505 207.713 27.6959C207.701 26.7414 207.843 25.7912 208.134 24.882C208.398 24.069 208.82 23.3161 209.375 22.6664C209.938 22.0136 210.643 21.4982 211.436 21.1598C212.338 20.7703 213.313 20.5813 214.295 20.6058C215.262 20.5835 216.223 20.7726 217.11 21.1598C217.921 21.4972 218.643 22.0209 219.215 22.6885C219.783 23.3368 220.219 24.0893 220.5 24.9042C220.814 25.8089 220.972 26.7605 220.965 27.7181C220.973 28.6685 220.815 29.613 220.5 30.5098Z" fill="white"/>
</svg>
