<svg width="249" height="53" viewBox="0 0 249 53" fill="none" xmlns="http://www.w3.org/2000/svg">
<path d="M55.799 12.3108L58.1759 12.2874L59.0051 10.4439L56.6517 10.467L55.799 12.3108Z" fill="#ED6825"/>
<path d="M54.0783 2.46838L51.7249 2.49152L50.8958 4.3351L53.2491 4.31197L54.0783 2.46838Z" fill="#ED6825"/>
<path d="M52.3988 8.7911L54.7521 8.76796L55.5813 6.92438L53.2279 6.94751L52.3988 8.7911Z" fill="#ED6825"/>
<path d="M54.928 14.696L51.5208 22.424L52.3728 20.5097L50.0195 20.5328L54.1629 11.0799L51.8096 11.103L46.8138 22.4232L50.5659 13.8683L48.2126 13.8914L44.4605 22.4463L50.769 8.19542L48.4157 8.21855L42.0168 22.8469L35.3639 37.9719L24.5205 14.6656C24.3761 14.3557 24.1448 14.0944 23.8548 13.9134C23.5647 13.7325 23.2284 13.6397 22.8865 13.6463L14.4618 13.7291C14.2651 13.7306 14.0708 13.7725 13.891 13.8523C13.7111 13.932 13.5496 14.0478 13.4164 14.1925C13.2832 14.3372 13.1812 14.5078 13.1167 14.6936C13.0521 14.8794 13.0265 15.0764 13.0413 15.2725L0.4024 43.9393L12.1688 43.8237L19.0773 28.3668L29.897 51.6498C30.0467 51.9623 30.2818 52.226 30.5752 52.4105C30.8685 52.595 31.2081 52.6928 31.5547 52.6924L39.4147 52.6151C39.7673 52.6107 40.1105 52.5007 40.4 52.2995C40.78 52.0709 41.0806 51.7312 41.2612 51.3263L54.0153 22.3995L57.4225 14.6715L54.928 14.696Z" fill="#ED6825"/>
<path d="M84.9178 24.8487C84.1829 24.1128 83.3038 23.5367 82.3358 23.1563C81.2434 22.7482 80.0833 22.5519 78.9174 22.5781C77.4205 22.5681 75.9416 22.9048 74.5965 23.5618C73.3042 24.2544 72.2366 25.3018 71.5195 26.5805L71.485 23.0747L68.7552 23.1015L68.9513 43.0541L71.7753 43.0263L71.6784 33.1677C71.6605 32.1331 71.7931 31.1013 72.0719 30.1048C72.3365 29.2406 72.7684 28.4368 73.3431 27.7392C73.9222 27.0356 74.6474 26.4664 75.4685 26.0711C76.4283 25.6402 77.4697 25.4213 78.5218 25.4292C79.3075 25.307 80.1109 25.3698 80.868 25.6128C81.6251 25.8557 82.315 26.2721 82.8828 26.8287C83.4505 27.3853 83.8804 28.0668 84.1383 28.8188C84.3961 29.5708 84.4748 30.3727 84.3679 31.1605L84.4857 43.1367L87.2862 43.1092L87.1638 30.6623C87.1625 29.5393 86.9603 28.4256 86.5666 27.3739C86.1953 26.4284 85.6342 25.5689 84.9178 24.8487Z" fill="#ED6825"/>
<path d="M109.352 27.7382C109.004 26.8755 108.501 26.0832 107.87 25.3997C107.248 24.7168 106.528 24.1292 105.735 23.6558C104.929 23.1914 104.062 22.8433 103.159 22.6222C102.234 22.4005 101.283 22.2991 100.332 22.3206C98.9157 22.3116 97.5141 22.6062 96.2215 23.1846C95.02 23.7303 93.9333 24.4996 93.0194 25.4515C92.1328 26.4148 91.4406 27.5402 90.9809 28.7659C90.5006 30.0545 90.2666 31.4217 90.2909 32.7966C90.2917 34.2255 90.5529 35.6423 91.0616 36.9776C91.5413 38.2367 92.2644 39.389 93.1896 40.3686C94.1249 41.3612 95.2541 42.1511 96.5074 42.6892C97.8626 43.2349 99.3143 43.5008 100.775 43.4708C102.709 43.525 104.618 43.0157 106.268 42.0049C107.881 40.8778 109.139 39.3146 109.895 37.4983L110.104 37.1433L107.41 36.1109L107.249 36.4184C106.767 37.7079 105.919 38.8287 104.809 39.6427C103.629 40.4012 102.244 40.7764 100.842 40.717C99.8223 40.7454 98.8063 40.5797 97.8483 40.2287C96.9902 39.914 96.2071 39.4244 95.5485 38.7908C94.8899 38.1572 94.3704 37.3936 94.0229 36.5484C93.6357 35.6305 93.4034 34.6547 93.3355 33.6608L110.185 33.4951L110.182 33.1422C110.173 32.2324 110.164 31.3384 110.156 30.46C110.032 29.5163 109.761 28.5979 109.352 27.7382ZM93.2164 31.1206C93.4388 29.386 94.2546 27.7817 95.5253 26.5799C96.8742 25.388 98.6276 24.7563 100.427 24.814C101.289 24.7264 102.16 24.8208 102.983 25.091C103.807 25.3613 104.564 25.8015 105.207 26.383C105.849 26.9645 106.362 27.6743 106.713 28.4667C107.064 29.2591 107.244 30.1163 107.242 30.9827L93.2164 31.1206Z" fill="#ED6825"/>
<path d="M120.718 39.6037L113.773 22.6589L110.714 22.689L119.1 42.561L122.418 42.5284L130.412 22.4953L127.352 22.5254L120.718 39.6037Z" fill="#ED6825"/>
<path d="M147.982 23.8287C147.18 23.139 146.246 22.6197 145.237 22.3027C144.1 21.9543 142.914 21.7912 141.725 21.8195C140.572 21.8179 139.422 21.9317 138.292 22.1592C137.297 22.3383 136.343 22.6987 135.478 23.2222C134.631 23.7298 133.894 24.401 133.309 25.1966C132.617 26.1225 132.093 27.1632 131.762 28.2709L131.765 28.5767L134.294 29.6578L134.291 29.3049C134.599 28.4057 135.018 27.548 135.537 26.7513C135.922 26.1652 136.432 25.6703 137.029 25.3012C137.631 24.9357 138.301 24.697 138.999 24.5995C139.864 24.4809 140.736 24.4172 141.609 24.4091C143.143 24.3166 144.661 24.7591 145.905 25.661C146.477 26.1419 146.926 26.7518 147.215 27.4405C147.504 28.1292 147.625 28.8768 147.568 29.6215L147.576 30.398L139.393 31.2079C138.529 31.299 137.673 31.4569 136.832 31.6801C135.943 31.8903 135.089 32.2317 134.3 32.6933C133.54 33.1407 132.887 33.7496 132.388 34.4769C131.857 35.2618 131.594 36.197 131.638 37.1434C131.614 38.0908 131.878 39.0232 132.394 39.8184C132.894 40.5427 133.542 41.1537 134.294 41.6117C135.075 42.0864 135.929 42.428 136.822 42.6222C137.694 42.8346 138.588 42.9365 139.485 42.9255C140.274 42.9149 141.061 42.8363 141.836 42.6906C142.644 42.5286 143.431 42.2762 144.182 41.9381C144.908 41.6199 145.585 41.2014 146.194 40.6947C146.818 40.1765 147.353 39.559 147.777 38.8672L147.81 42.2789L150.54 42.2521L150.417 29.7582C150.431 28.5739 150.203 27.3992 149.748 26.3057C149.346 25.3615 148.743 24.5163 147.982 23.8287ZM145.419 38.4432C143.777 39.7896 141.699 40.4881 139.578 40.4067C138.977 40.4082 138.377 40.3511 137.787 40.2361C137.221 40.132 136.672 39.9472 136.158 39.6874C135.684 39.4597 135.276 39.1155 134.971 38.6871C134.65 38.2543 134.487 37.7243 134.509 37.1857C134.483 36.6121 134.652 36.0464 134.988 35.5809C135.342 35.1399 135.788 34.7821 136.296 34.5327C136.845 34.2369 137.439 34.0324 138.055 33.9271C138.713 33.803 139.347 33.7026 139.958 33.6495L147.623 32.8682C147.688 33.9023 147.523 34.9378 147.142 35.9013C146.761 36.8648 146.173 37.7327 145.419 38.4432Z" fill="#ED6825"/>
<path d="M170.775 34.5467C170.584 36.1397 169.811 37.6058 168.603 38.6624C167.328 39.6798 165.729 40.205 164.099 40.1422C163.047 40.173 162.001 39.9745 161.033 39.5605C160.139 39.1574 159.334 38.5815 158.663 37.866C157.987 37.1407 157.459 36.2907 157.109 35.3635C156.337 33.3848 156.316 31.1924 157.048 29.1989C157.375 28.2612 157.887 27.3992 158.556 26.6648C159.224 25.9303 160.034 25.3385 160.937 24.925C161.893 24.4817 162.935 24.2546 163.99 24.2597C165.608 24.1926 167.2 24.6837 168.499 25.6507C169.725 26.6654 170.508 28.118 170.68 29.7002L170.684 30.1001L173.503 29.5548L173.499 29.1548C173.316 28.0506 172.922 26.992 172.339 26.0366C171.189 24.1862 169.413 22.8094 167.335 22.156C166.252 21.8158 165.122 21.6521 163.988 21.6712C162.541 21.6607 161.108 21.9554 159.783 22.5362C158.554 23.0751 157.443 23.8521 156.515 24.8225C155.588 25.7928 154.862 26.9373 154.379 28.1897C153.37 30.8476 153.399 33.7874 154.46 36.4249C154.976 37.6673 155.722 38.8014 156.658 39.7682C157.594 40.7697 158.733 41.5606 159.999 42.0885C161.341 42.6202 162.776 42.8781 164.219 42.8471C165.379 42.8416 166.529 42.6474 167.626 42.2723C168.64 41.8959 169.588 41.3625 170.435 40.6916C171.272 40.0415 171.976 39.2355 172.507 38.3181C173.069 37.3522 173.465 36.2982 173.676 35.2006L173.672 34.777L170.843 34.2872L170.775 34.5467Z" fill="#ED6825"/>
<path d="M179.44 13.4483L176.639 13.4758L176.92 41.9921L179.72 41.9645L179.44 13.4483Z" fill="#ED6825"/>
<path d="M200.587 24.2763C199.686 23.3273 198.596 22.5766 197.388 22.0723C196.024 21.5302 194.564 21.2723 193.097 21.3144C191.637 21.301 190.19 21.5875 188.845 22.1563C187.633 22.6823 186.542 23.4543 185.643 24.4232C184.765 25.4106 184.089 26.5604 183.652 27.8077C182.706 30.4924 182.735 33.4244 183.734 36.0899C184.195 37.3211 184.894 38.4497 185.791 39.4112C186.692 40.4114 187.8 41.2035 189.038 41.7324C190.393 42.2745 191.846 42.5326 193.305 42.4905C194.773 42.5037 196.228 42.2171 197.58 41.6484C198.794 41.0948 199.871 40.2808 200.734 39.2642C201.626 38.2955 202.304 37.1504 202.725 35.9032C203.194 34.5716 203.42 33.1666 203.391 31.7552C203.39 30.3361 203.137 28.9283 202.644 27.5975C202.187 26.3644 201.487 25.2352 200.587 24.2763ZM200.103 34.8936C199.805 35.8294 199.325 36.6976 198.692 37.4489C198.046 38.1763 197.248 38.7542 196.356 39.1426C195.381 39.5803 194.323 39.7995 193.255 39.7849C192.165 39.825 191.078 39.6268 190.072 39.2043C189.169 38.8398 188.359 38.2768 187.702 37.5569C187.055 36.8183 186.559 35.9596 186.242 35.0299C185.916 34.0282 185.747 32.9821 185.741 31.9287C185.722 30.8657 185.879 29.8067 186.204 28.7945C186.529 27.8743 187.023 27.0234 187.662 26.2859C188.317 25.5619 189.112 24.9778 189.999 24.5686C190.979 24.1209 192.045 23.8935 193.123 23.9026C194.205 23.8739 195.281 24.0717 196.282 24.4833C197.179 24.8598 197.986 25.4212 198.652 26.1308C199.288 26.8646 199.776 27.7148 200.088 28.6344C200.767 30.6623 200.788 32.8524 200.15 34.8931L200.103 34.8936Z" fill="#ED6825"/>
<path d="M221.465 31.6952C221.481 32.7298 221.349 33.7612 221.071 34.7581C220.814 35.6255 220.382 36.4308 219.8 37.1237C219.229 37.8408 218.502 38.4192 217.675 38.8154C216.715 39.2462 215.674 39.4651 214.622 39.4572C213.832 39.5266 213.036 39.4326 212.285 39.1808C211.533 38.9291 210.842 38.5251 210.253 37.9941C209.738 37.4151 209.342 36.74 209.088 36.0075C208.835 35.275 208.728 34.4997 208.775 33.726L208.658 21.7497L205.857 21.7773L205.976 33.8711C205.975 35.0021 206.177 36.124 206.574 37.1832C206.941 38.1584 207.503 39.0493 208.223 39.8025C208.962 40.5391 209.85 41.1081 210.829 41.4711C211.918 41.8903 213.08 42.0869 214.247 42.0493C215.729 42.0625 217.194 41.7256 218.521 41.066C219.828 40.3968 220.908 39.3542 221.622 38.0706L221.656 41.5765L224.386 41.5496L224.19 21.5971L221.366 21.6248L221.465 31.6952Z" fill="#ED6825"/>
<path d="M245.025 12.8036L245.143 24.7324C244.378 23.4184 243.236 22.364 241.865 21.7056C240.438 21.0864 238.893 20.7883 237.338 20.8325C235.904 20.822 234.485 21.1251 233.181 21.7204C231.999 22.2808 230.954 23.0944 230.121 24.1036C229.277 25.0989 228.633 26.2477 228.225 27.487C227.802 28.788 227.593 30.149 227.605 31.5169C227.618 32.8946 227.862 34.2604 228.327 35.5571C228.762 36.7754 229.419 37.9021 230.267 38.8793C231.124 39.8664 232.183 40.6583 233.372 41.2018C234.687 41.7795 236.111 42.0627 237.546 42.0314C239.121 42.0385 240.678 41.6936 242.102 41.0219C243.482 40.3071 244.618 39.1984 245.366 37.8367L245.401 41.413L248.131 41.3862L247.849 12.7758L245.025 12.8036ZM244.744 34.4309C244.42 35.3582 243.925 36.2168 243.286 36.963C242.638 37.6945 241.841 38.2798 240.949 38.6801C238.959 39.5145 236.72 39.5365 234.713 38.7414C233.811 38.3646 233.001 37.7942 232.343 37.0705C231.703 36.3393 231.215 35.4883 230.907 34.567C230.579 33.5576 230.41 32.5035 230.405 31.4423C230.391 30.3813 230.539 29.3244 230.845 28.3084C231.126 27.3821 231.59 26.5214 232.209 25.7772C232.846 25.0397 233.646 24.46 234.546 24.0836C235.535 23.6412 236.609 23.4218 237.693 23.4409C238.776 23.4057 239.853 23.6038 240.852 24.0216C241.757 24.3832 242.568 24.9466 243.222 25.669C243.869 26.4124 244.372 27.269 244.706 28.1956C245.384 30.2154 245.406 32.398 244.767 34.4307L244.744 34.4309Z" fill="#ED6825"/>
</svg>
